<svg id="icon-sandwich" width="72" height="72" viewBox="0 0 72 72" fill="none" xmlns="http://www.w3.org/2000/svg">
<g filter="url(#filter0_bd)">
<path d="M20 32C20 23.1634 27.1634 16 36 16C44.8366 16 52 23.1634 52 32C52 40.8366 44.8366 48 36 48C27.1634 48 20 40.8366 20 32Z" fill="white" fill-opacity="0.5"/>
<line x1="29" y1="26" x2="43" y2="26" stroke="#4754EB" stroke-width="2" stroke-linecap="round"/>
<line x1="29" y1="32" x2="39" y2="32" stroke="#4754EB" stroke-width="2" stroke-linecap="round"/>
<line x1="29" y1="38" x2="39" y2="38" stroke="#4754EB" stroke-width="2" stroke-linecap="round"/>
<path d="M36 47C27.7157 47 21 40.2843 21 32H19C19 41.3888 26.6112 49 36 49V47ZM51 32C51 40.2843 44.2843 47 36 47V49C45.3888 49 53 41.3888 53 32H51ZM36 17C44.2843 17 51 23.7157 51 32H53C53 22.6112 45.3888 15 36 15V17ZM36 15C26.6112 15 19 22.6112 19 32H21C21 23.7157 27.7157 17 36 17V15Z" fill="url(#paint0_linear)"/>
</g>
<defs>
<filter id="filter0_bd" x="-4" y="-8" width="80" height="80" filterUnits="userSpaceOnUse" color-interpolation-filters="sRGB">
<feFlood flood-opacity="0" result="BackgroundImageFix"/>
<feGaussianBlur in="BackgroundImage" stdDeviation="12"/>
<feComposite in2="SourceAlpha" operator="in" result="effect1_backgroundBlur"/>
<feColorMatrix in="SourceAlpha" type="matrix" values="0 0 0 0 0 0 0 0 0 0 0 0 0 0 0 0 0 0 127 0" result="hardAlpha"/>
<feOffset dy="4"/>
<feGaussianBlur stdDeviation="10"/>
<feColorMatrix type="matrix" values="0 0 0 0 0.0980392 0 0 0 0 0.0980392 0 0 0 0 0.0980392 0 0 0 0.05 0"/>
<feBlend mode="normal" in2="effect1_backgroundBlur" result="effect2_dropShadow"/>
<feBlend mode="normal" in="SourceGraphic" in2="effect2_dropShadow" result="shape"/>
</filter>
<linearGradient id="paint0_linear" x1="52" y1="16" x2="20" y2="48" gradientUnits="userSpaceOnUse">
<stop stop-color="white" stop-opacity="0.75"/>
<stop offset="1" stop-color="white" stop-opacity="0"/>
</linearGradient>
</defs>
</svg>
