<svg width="24" height="24" viewBox="0 0 24 24" fill="none" xmlns="http://www.w3.org/2000/svg">
<path d="M0 12C0 5.37258 5.37258 0 12 0C18.6274 0 24 5.37258 24 12C24 18.6274 18.6274 24 12 24C5.37258 24 0 18.6274 0 12Z" fill="white" fill-opacity="0.5"/>
<path d="M8.25 15.75L15.75 8.25" stroke="#EB4763" stroke-width="2" stroke-linecap="round"/>
<path d="M15.75 15.75L8.25 8.25" stroke="#EB4763" stroke-width="2" stroke-linecap="round"/>
<path d="M12 23C5.92487 23 1 18.0751 1 12H-1C-1 19.1797 4.8203 25 12 25V23ZM23 12C23 18.0751 18.0751 23 12 23V25C19.1797 25 25 19.1797 25 12H23ZM12 1C18.0751 1 23 5.92487 23 12H25C25 4.8203 19.1797 -1 12 -1V1ZM12 -1C4.8203 -1 -1 4.8203 -1 12H1C1 5.92487 5.92487 1 12 1V-1Z" fill="url(#paint0_linear)"/>
<defs>
<linearGradient id="paint0_linear" x1="24" y1="-7.15256e-07" x2="-2.14577e-06" y2="24" gradientUnits="userSpaceOnUse">
<stop stop-color="white"/>
<stop offset="1" stop-color="white" stop-opacity="0"/>
</linearGradient>
</defs>
</svg>
