<svg id="icon-start" width="18" height="17" viewBox="0 0 18 17" fill="none" xmlns="http://www.w3.org/2000/svg">
<path d="M9.89674 1.68721C9.52992 0.943966 8.47008 0.943961 8.10326 1.68721L6.31683 5.30693L2.32223 5.88738C1.50201 6.00656 1.1745 7.01453 1.76802 7.59307L2.11702 7.23503L1.76802 7.59307L4.65853 10.4106L3.97618 14.3891C3.83607 15.206 4.69349 15.829 5.42712 15.4433L9 13.5649L12.5729 15.4433C13.3065 15.8289 14.1639 15.206 14.0238 14.3891L13.3415 10.4106L16.232 7.59307C16.8255 7.01454 16.498 6.00656 15.6778 5.88738L11.6832 5.30693L9.89674 1.68721Z" fill="#4754EB" stroke="url(#paint0_linear)"/>
<defs>
<linearGradient id="paint0_linear" x1="17" y1="1" x2="0.999999" y2="17" gradientUnits="userSpaceOnUse">
<stop stop-color="white" stop-opacity="0.5"/>
<stop offset="1" stop-color="white" stop-opacity="0"/>
</linearGradient>
</defs>
</svg>
