<svg xmlns="http://www.w3.org/2000/svg" xmlns:xlink="http://www.w3.org/1999/xlink"><defs>
<linearGradient id="paint0_linear" x1="24" y1="-7.15256e-07" x2="-2.14577e-06" y2="24" gradientUnits="userSpaceOnUse">
<stop stop-color="white"/>
<stop offset="1" stop-color="white" stop-opacity="0"/>
</linearGradient>

<linearGradient id="paint0_linear" x1="24" y1="-7.15256e-07" x2="-2.14577e-06" y2="24" gradientUnits="userSpaceOnUse">
<stop stop-color="white"/>
<stop offset="1" stop-color="white" stop-opacity="0"/>
</linearGradient>

<filter id="filter0_bd" x="-4" y="-8" width="80" height="80" filterUnits="userSpaceOnUse" color-interpolation-filters="sRGB">
<feFlood flood-opacity="0" result="BackgroundImageFix"/>
<feGaussianBlur in="BackgroundImage" stdDeviation="12"/>
<feComposite in2="SourceAlpha" operator="in" result="effect1_backgroundBlur"/>
<feColorMatrix in="SourceAlpha" type="matrix" values="0 0 0 0 0 0 0 0 0 0 0 0 0 0 0 0 0 0 127 0" result="hardAlpha"/>
<feOffset dy="4"/>
<feGaussianBlur stdDeviation="10"/>
<feColorMatrix type="matrix" values="0 0 0 0 0.0980392 0 0 0 0 0.0980392 0 0 0 0 0.0980392 0 0 0 0.05 0"/>
<feBlend mode="normal" in2="effect1_backgroundBlur" result="effect2_dropShadow"/>
<feBlend mode="normal" in="SourceGraphic" in2="effect2_dropShadow" result="shape"/>
</filter>
<linearGradient id="paint0_linear" x1="52" y1="16" x2="20" y2="48" gradientUnits="userSpaceOnUse">
<stop stop-color="white" stop-opacity="0.75"/>
<stop offset="1" stop-color="white" stop-opacity="0"/>
</linearGradient>

    <linearGradient id="paint0_linear" x1="17" y1="1" x2="0.999999" y2="17" gradientUnits="userSpaceOnUse">
    <stop stop-color="white" stop-opacity="0.5"/>
    <stop offset="1" stop-color="white" stop-opacity="0"/>
    </linearGradient>
    
<linearGradient id="paint0_linear" x1="17" y1="1" x2="0.999999" y2="17" gradientUnits="userSpaceOnUse">
<stop stop-color="white" stop-opacity="0.5"/>
<stop offset="1" stop-color="white" stop-opacity="0"/>
</linearGradient>
</defs><symbol id="icon-arrow-round" viewBox="0 0 24 24">
<path d="M0 12C0 5.37258 5.37258 0 12 0C18.6274 0 24 5.37258 24 12C24 18.6274 18.6274 24 12 24C5.37258 24 0 18.6274 0 12Z" fill="white" fill-opacity="0.5"/>
<path d="M7.5 12L10.5 15L16.5 9" stroke="#4754EB" stroke-width="2" stroke-linecap="round"/>
<path d="M12 23C5.92487 23 1 18.0751 1 12H-1C-1 19.1797 4.8203 25 12 25V23ZM23 12C23 18.0751 18.0751 23 12 23V25C19.1797 25 25 19.1797 25 12H23ZM12 1C18.0751 1 23 5.92487 23 12H25C25 4.8203 19.1797 -1 12 -1V1ZM12 -1C4.8203 -1 -1 4.8203 -1 12H1C1 5.92487 5.92487 1 12 1V-1Z" fill="url(#paint0_linear)"/>

</symbol><symbol id="icon-arrow-up" viewBox="0 0 16 18">
<path d="M7 17C7 17.5523 7.44772 18 8 18C8.55228 18 9 17.5523 9 17L7 17ZM8.70711 0.292892C8.31658 -0.0976314 7.68342 -0.0976315 7.29289 0.292892L0.928933 6.65685C0.538408 7.04738 0.538408 7.68054 0.928933 8.07107C1.31946 8.46159 1.95262 8.46159 2.34315 8.07107L8 2.41421L13.6569 8.07107C14.0474 8.46159 14.6805 8.46159 15.0711 8.07107C15.4616 7.68054 15.4616 7.04738 15.0711 6.65685L8.70711 0.292892ZM9 17L9 1L7 1L7 17L9 17Z" fill="white"/>
</symbol><symbol id="icon-cross-round" viewBox="0 0 24 24">
<path d="M0 12C0 5.37258 5.37258 0 12 0C18.6274 0 24 5.37258 24 12C24 18.6274 18.6274 24 12 24C5.37258 24 0 18.6274 0 12Z" fill="white" fill-opacity="0.5"/>
<path d="M8.25 15.75L15.75 8.25" stroke="#EB4763" stroke-width="2" stroke-linecap="round"/>
<path d="M15.75 15.75L8.25 8.25" stroke="#EB4763" stroke-width="2" stroke-linecap="round"/>
<path d="M12 23C5.92487 23 1 18.0751 1 12H-1C-1 19.1797 4.8203 25 12 25V23ZM23 12C23 18.0751 18.0751 23 12 23V25C19.1797 25 25 19.1797 25 12H23ZM12 1C18.0751 1 23 5.92487 23 12H25C25 4.8203 19.1797 -1 12 -1V1ZM12 -1C4.8203 -1 -1 4.8203 -1 12H1C1 5.92487 5.92487 1 12 1V-1Z" fill="url(#paint0_linear)"/>

</symbol><symbol id="icon-cross-small" viewBox="0 0 24 24"><rect x="0" fill="none" width="24" height="24"/><g><path d="M18.36 19.78L12 13.41l-6.36 6.37-1.42-1.42L10.59 12 4.22 5.64l1.42-1.42L12 10.59l6.36-6.36 1.41 1.41L13.41 12l6.36 6.36z"/></g></symbol><symbol id="icon-cross" viewBox="0 0 24 24">
<path fill-rule="evenodd" clip-rule="evenodd" d="M5.12117 18.8493C4.73065 18.4587 4.73065 17.8256 5.12117 17.435L17.8491 4.70712C18.2396 4.3166 18.8728 4.3166 19.2633 4.70712C19.6538 5.09765 19.6538 5.73081 19.2633 6.12134L6.53538 18.8493C6.14486 19.2398 5.51169 19.2398 5.12117 18.8493Z" fill="#4754EB"/>
<path fill-rule="evenodd" clip-rule="evenodd" d="M4.70696 4.84926C5.09748 4.45873 5.73065 4.45873 6.12117 4.84926L18.8491 17.5772C19.2396 17.9677 19.2396 18.6009 18.8491 18.9914C18.4586 19.3819 17.8254 19.3819 17.4349 18.9914L4.70696 6.26347C4.31643 5.87295 4.31643 5.23978 4.70696 4.84926Z" fill="#4754EB"/>
</symbol><symbol id="icon-login" viewBox="0 0 40 40">
<rect width="40" height="40" rx="20" fill="#4754EB"/>
<path d="M20 21C16.265 21 13.1279 23.5595 12.2469 27.0202C11.9743 28.0907 12.8954 29 14 29H26C27.1046 29 28.0257 28.0907 27.7531 27.0202C26.8721 23.5595 23.735 21 20 21Z" fill="white"/>
<circle cx="20" cy="15" r="4" fill="white"/>
</symbol><symbol id="icon-plus-small" viewBox="0 0 24 24"><g data-name="Layer 2"><g data-name="plus"><rect width="24" height="24" transform="rotate(180 12 12)" opacity="0"/><path d="M19 11h-6V5a1 1 0 0 0-2 0v6H5a1 1 0 0 0 0 2h6v6a1 1 0 0 0 2 0v-6h6a1 1 0 0 0 0-2z"/></g></g></symbol><symbol id="icon-sandwich" viewBox="0 0 72 72">
<g filter="url(#filter0_bd)">
<path d="M20 32C20 23.1634 27.1634 16 36 16C44.8366 16 52 23.1634 52 32C52 40.8366 44.8366 48 36 48C27.1634 48 20 40.8366 20 32Z" fill="white" fill-opacity="0.5"/>
<line x1="29" y1="26" x2="43" y2="26" stroke="#4754EB" stroke-width="2" stroke-linecap="round"/>
<line x1="29" y1="32" x2="39" y2="32" stroke="#4754EB" stroke-width="2" stroke-linecap="round"/>
<line x1="29" y1="38" x2="39" y2="38" stroke="#4754EB" stroke-width="2" stroke-linecap="round"/>
<path d="M36 47C27.7157 47 21 40.2843 21 32H19C19 41.3888 26.6112 49 36 49V47ZM51 32C51 40.2843 44.2843 47 36 47V49C45.3888 49 53 41.3888 53 32H51ZM36 17C44.2843 17 51 23.7157 51 32H53C53 22.6112 45.3888 15 36 15V17ZM36 15C26.6112 15 19 22.6112 19 32H21C21 23.7157 27.7157 17 36 17V15Z" fill="url(#paint0_linear)"/>
</g>

</symbol><symbol id="icon-star-gray" viewBox="0 0 18 17">
    <path d="M9.89674 1.68721C9.52992 0.943966 8.47008 0.943961 8.10326 1.68721L6.31683 5.30693L2.32223 5.88738C1.50201 6.00656 1.1745 7.01453 1.76802 7.59307L2.11702 7.23503L1.76802 7.59307L4.65853 10.4106L3.97618 14.3891C3.83607 15.206 4.69349 15.829 5.42712 15.4433L9 13.5649L12.5729 15.4433C13.3065 15.8289 14.1639 15.206 14.0238 14.3891L13.3415 10.4106L16.232 7.59307C16.8255 7.01454 16.498 6.00656 15.6778 5.88738L11.6832 5.30693L9.89674 1.68721Z" fill="#D9D9D9" stroke="url(#paint0_linear)"/>
    
</symbol><symbol id="icon-star" viewBox="0 0 18 17">
<path d="M9.89674 1.68721C9.52992 0.943966 8.47008 0.943961 8.10326 1.68721L6.31683 5.30693L2.32223 5.88738C1.50201 6.00656 1.1745 7.01453 1.76802 7.59307L2.11702 7.23503L1.76802 7.59307L4.65853 10.4106L3.97618 14.3891C3.83607 15.206 4.69349 15.829 5.42712 15.4433L9 13.5649L12.5729 15.4433C13.3065 15.8289 14.1639 15.206 14.0238 14.3891L13.3415 10.4106L16.232 7.59307C16.8255 7.01454 16.498 6.00656 15.6778 5.88738L11.6832 5.30693L9.89674 1.68721Z" fill="#4754EB" stroke="url(#paint0_linear)"/>

</symbol><symbol id="icon-wheeldown" viewBox="0 0 24 32">
<rect x="1" y="1" width="22" height="30" rx="11" stroke="white" stroke-width="2"/>
<path d="M12 13L12 7" stroke="white" stroke-width="2" stroke-linecap="round"/>
</symbol></svg>