<svg width="72" height="12" viewBox="0 0 72 12" fill="none" xmlns="http://www.w3.org/2000/svg">
<path d="M0.98 1.2H2.324V8.97L6.832 1.2H8.344V11H7V3.23L2.492 11H0.98V1.2ZM10.2482 4H11.4802V6.94H15.0082V4H16.2402V11H15.0082V8.06H11.4802V11H10.2482V4ZM21.2182 11.14C20.5555 11.14 19.9582 10.9907 19.4262 10.692C18.8942 10.384 18.4742 9.95467 18.1662 9.404C17.8675 8.85333 17.7182 8.21867 17.7182 7.5C17.7182 6.78133 17.8675 6.14667 18.1662 5.596C18.4742 5.04533 18.8942 4.62067 19.4262 4.322C19.9582 4.014 20.5555 3.86 21.2182 3.86C22.1235 3.86 22.8702 4.098 23.4582 4.574C24.0462 5.04067 24.4009 5.694 24.5222 6.534H23.3602C23.2482 6.03933 23.0102 5.65667 22.6462 5.386C22.2822 5.11533 21.8109 4.98 21.2322 4.98C20.5602 4.98 20.0095 5.20867 19.5802 5.666C19.1602 6.114 18.9502 6.72533 18.9502 7.5C18.9502 8.27467 19.1602 8.89067 19.5802 9.348C20.0095 9.796 20.5602 10.02 21.2322 10.02C21.8109 10.02 22.2822 9.88467 22.6462 9.614C23.0102 9.34333 23.2482 8.96067 23.3602 8.466H24.5222C24.4009 9.306 24.0462 9.964 23.4582 10.44C22.8702 10.9067 22.1235 11.14 21.2182 11.14ZM27.5513 5.12H25.1713V4H31.1633V5.12H28.7833V11H27.5513V5.12ZM34.191 11.14C33.5283 11.14 32.9916 10.958 32.581 10.594C32.1703 10.2207 31.965 9.726 31.965 9.11C31.965 8.45667 32.189 7.94333 32.637 7.57C33.085 7.19667 33.6496 6.97733 34.331 6.912L36.515 6.688V6.212C36.515 5.81067 36.3703 5.50733 36.081 5.302C35.801 5.08733 35.4276 4.98 34.961 4.98C34.569 4.98 34.2376 5.07333 33.967 5.26C33.7056 5.44667 33.5283 5.73133 33.435 6.114H32.273C32.3756 5.37667 32.6883 4.81667 33.211 4.434C33.743 4.05133 34.3543 3.86 35.045 3.86C35.8663 3.86 36.5196 4.06533 37.005 4.476C37.4996 4.87733 37.747 5.40933 37.747 6.072V9.348C37.747 9.58133 37.7983 9.76333 37.901 9.894C38.0036 10.0153 38.1576 10.076 38.363 10.076C38.4843 10.076 38.6056 10.0573 38.727 10.02V10.944C38.447 11.0373 38.1856 11.084 37.943 11.084C37.187 11.084 36.725 10.72 36.557 9.992C36.2863 10.3 35.9363 10.5707 35.507 10.804C35.0776 11.028 34.639 11.14 34.191 11.14ZM34.331 10.02C35.059 10.02 35.787 9.656 36.515 8.928V7.668L34.415 7.906C34.023 7.95267 33.7196 8.08333 33.505 8.298C33.2996 8.50333 33.197 8.75533 33.197 9.054C33.197 9.37133 33.2996 9.614 33.505 9.782C33.7196 9.94067 33.995 10.02 34.331 10.02ZM43.1568 11.14C42.5408 11.14 41.9481 11.0093 41.3788 10.748C40.8188 10.4867 40.3521 10.0293 39.9788 9.376C39.6054 8.72267 39.4188 7.85 39.4188 6.758C39.4188 4.92867 39.7454 3.54733 40.3988 2.614C41.0521 1.67133 42.0928 1.2 43.5208 1.2H44.1228C44.4214 1.2 44.6408 1.16267 44.7808 1.088C44.9208 1.01333 45.0188 0.864 45.0748 0.64H46.1948C46.1668 1.116 45.9661 1.51733 45.5928 1.844C45.2288 2.16133 44.6641 2.32 43.8988 2.32H43.3668C42.4428 2.32 41.7428 2.59533 41.2668 3.146C40.8001 3.68733 40.5108 4.49933 40.3988 5.582C40.7254 4.97533 41.1361 4.53667 41.6308 4.266C42.1254 3.99533 42.6528 3.86 43.2128 3.86C43.8194 3.86 44.3794 4.00467 44.8928 4.294C45.4061 4.58333 45.8168 5.00333 46.1248 5.554C46.4328 6.09533 46.5868 6.744 46.5868 7.5C46.5868 8.24667 46.4234 8.89533 46.0968 9.446C45.7794 9.99667 45.3548 10.4167 44.8228 10.706C44.3001 10.9953 43.7448 11.14 43.1568 11.14ZM43.0448 10.02C43.4368 10.02 43.8054 9.936 44.1508 9.768C44.5054 9.59067 44.7948 9.31533 45.0188 8.942C45.2428 8.55933 45.3548 8.08333 45.3548 7.514C45.3548 6.926 45.2381 6.44067 45.0048 6.058C44.7808 5.67533 44.4868 5.4 44.1228 5.232C43.7681 5.05467 43.3854 4.966 42.9748 4.966C42.5828 4.966 42.2094 5.05467 41.8548 5.232C41.5094 5.4 41.2248 5.67533 41.0008 6.058C40.7768 6.43133 40.6648 6.90267 40.6648 7.472C40.6648 8.06 40.7768 8.54533 41.0008 8.928C41.2341 9.31067 41.5281 9.59067 41.8828 9.768C42.2468 9.936 42.6341 10.02 43.0448 10.02ZM51.2986 11.14C50.5986 11.14 49.9733 10.986 49.4226 10.678C48.8813 10.3607 48.4566 9.92667 48.1486 9.376C47.85 8.816 47.7006 8.19067 47.7006 7.5C47.7006 6.80933 47.85 6.18867 48.1486 5.638C48.4566 5.078 48.8813 4.644 49.4226 4.336C49.9733 4.01867 50.5986 3.86 51.2986 3.86C51.9986 3.86 52.6193 4.01867 53.1606 4.336C53.7113 4.644 54.136 5.078 54.4346 5.638C54.7426 6.18867 54.8966 6.80933 54.8966 7.5C54.8966 8.19067 54.7426 8.816 54.4346 9.376C54.136 9.92667 53.7113 10.3607 53.1606 10.678C52.6193 10.986 51.9986 11.14 51.2986 11.14ZM51.2986 10.02C51.9893 10.02 52.554 9.80067 52.9926 9.362C53.4406 8.92333 53.6646 8.30267 53.6646 7.5C53.6646 6.69733 53.4406 6.07667 52.9926 5.638C52.554 5.19933 51.9893 4.98 51.2986 4.98C50.608 4.98 50.0386 5.19933 49.5906 5.638C49.152 6.07667 48.9326 6.69733 48.9326 7.5C48.9326 8.30267 49.152 8.92333 49.5906 9.362C50.0386 9.80067 50.608 10.02 51.2986 10.02ZM57.9166 5.12H55.5366V4H61.5286V5.12H59.1486V11H57.9166V5.12ZM62.9533 4H64.1853V6.66H66.3273C67.0086 6.66 67.592 6.828 68.0773 7.164C68.5626 7.5 68.8053 8.05533 68.8053 8.83C68.8053 9.60467 68.5626 10.16 68.0773 10.496C67.592 10.832 67.0086 11 66.3273 11H62.9533V4ZM69.9533 4H71.1853V11H69.9533V4ZM66.1873 9.88C66.6633 9.88 67.0133 9.796 67.2373 9.628C67.4613 9.46 67.5733 9.194 67.5733 8.83C67.5733 8.466 67.4613 8.2 67.2373 8.032C67.0133 7.864 66.6633 7.78 66.1873 7.78H64.1853V9.88H66.1873Z" fill="white"/>
</svg>
