<svg width="74" height="11" viewBox="0 0 74 11" fill="none" xmlns="http://www.w3.org/2000/svg">
<path d="M0.952 0.699999H2.702V7.994H2.744L2.828 7.602L6.874 0.699999H8.792V10.5H7.042V3.206H7L6.916 3.598L2.87 10.5H0.952V0.699999ZM10.644 3.5H12.24V6.3H15.404V3.5H17V10.5H15.404V7.7H12.24V10.5H10.644V3.5ZM22.0125 10.64C21.3405 10.64 20.7292 10.486 20.1785 10.178C19.6372 9.87 19.2078 9.44067 18.8905 8.89C18.5825 8.33933 18.4285 7.70933 18.4285 7C18.4285 6.29067 18.5825 5.66067 18.8905 5.11C19.2078 4.55933 19.6372 4.13 20.1785 3.822C20.7292 3.514 21.3405 3.36 22.0125 3.36C22.9272 3.36 23.6832 3.59333 24.2805 4.06C24.8778 4.52667 25.2418 5.17533 25.3725 6.006L25.3305 6.076L23.9305 6.16C23.8278 5.73067 23.6132 5.39467 23.2865 5.152C22.9598 4.9 22.5398 4.774 22.0265 4.774C21.4292 4.774 20.9392 4.97 20.5565 5.362C20.1832 5.754 19.9965 6.3 19.9965 7C19.9965 7.7 20.1832 8.246 20.5565 8.638C20.9392 9.03 21.4292 9.226 22.0265 9.226C22.5398 9.226 22.9552 9.10933 23.2725 8.876C23.5898 8.63333 23.8092 8.288 23.9305 7.84L25.3305 7.924L25.3725 7.994C25.2045 8.834 24.8265 9.48733 24.2385 9.954C23.6505 10.4113 22.9085 10.64 22.0125 10.64ZM28.4254 4.9H26.0454V3.5H32.4014V4.9H30.0354V10.5H28.4254V4.9ZM35.3798 10.64C34.7451 10.64 34.2131 10.4533 33.7838 10.08C33.3638 9.69733 33.1538 9.18867 33.1538 8.554C33.1538 7.91 33.3731 7.40133 33.8118 7.028C34.2598 6.64533 34.8478 6.41667 35.5758 6.342L37.6058 6.132V5.754C37.6058 5.39 37.4844 5.11467 37.2418 4.928C36.9991 4.732 36.6724 4.634 36.2618 4.634C35.8978 4.634 35.5991 4.72267 35.3658 4.9C35.1418 5.07733 34.9971 5.33867 34.9318 5.684L33.5458 5.614L33.4758 5.558C33.6064 4.84867 33.9331 4.30733 34.4558 3.934C34.9784 3.55133 35.5991 3.36 36.3178 3.36C37.1671 3.36 37.8531 3.57467 38.3758 4.004C38.8984 4.424 39.1598 5.00267 39.1598 5.74V8.61C39.1598 9.07667 39.3464 9.31 39.7198 9.31C39.8038 9.31 39.9064 9.296 40.0278 9.268L40.0698 9.296V10.444C39.7804 10.5373 39.4864 10.584 39.1878 10.584C38.8518 10.584 38.5484 10.5047 38.2778 10.346C38.0164 10.1873 37.8251 9.926 37.7038 9.562H37.6618C37.3631 9.88867 37.0178 10.15 36.6258 10.346C36.2431 10.542 35.8278 10.64 35.3798 10.64ZM35.6738 9.338C36.0471 9.338 36.3878 9.24933 36.6958 9.072C37.0038 8.88533 37.3071 8.61933 37.6058 8.274V7.252L35.7858 7.462C35.4218 7.50867 35.1464 7.62533 34.9598 7.812C34.7731 7.98933 34.6798 8.20867 34.6798 8.47C34.6798 8.75 34.7731 8.96467 34.9598 9.114C35.1464 9.26333 35.3844 9.338 35.6738 9.338ZM44.6093 10.64C43.9466 10.64 43.3213 10.5047 42.7333 10.234C42.1453 9.96333 41.6599 9.49667 41.2773 8.834C40.8946 8.162 40.7033 7.27067 40.7033 6.16C40.7033 2.52 42.0939 0.699999 44.8753 0.699999H45.4913C45.7993 0.699999 46.0233 0.662666 46.1633 0.588C46.3126 0.513333 46.4153 0.364 46.4713 0.14H47.7873C47.7499 0.709333 47.5353 1.18067 47.1433 1.554C46.7606 1.918 46.1633 2.1 45.3513 2.1H44.8193C43.9886 2.1 43.3306 2.32867 42.8453 2.786C42.3693 3.24333 42.0613 3.95733 41.9213 4.928L41.8653 5.278H41.8933L42.0053 4.914C42.3226 4.36333 42.7193 3.96667 43.1953 3.724C43.6713 3.48133 44.1753 3.36 44.7073 3.36C45.3139 3.36 45.8786 3.50467 46.4013 3.794C46.9333 4.08333 47.3579 4.50333 47.6753 5.054C48.0019 5.60467 48.1653 6.25333 48.1653 7C48.1653 7.74667 47.9973 8.39533 47.6613 8.946C47.3253 9.49667 46.8819 9.91667 46.3313 10.206C45.7899 10.4953 45.2159 10.64 44.6093 10.64ZM44.4973 9.24C45.0759 9.24 45.5613 9.05333 45.9533 8.68C46.3546 8.29733 46.5553 7.742 46.5553 7.014C46.5553 6.26733 46.3499 5.70267 45.9393 5.32C45.5286 4.93733 45.0246 4.746 44.4273 4.746C43.8486 4.746 43.3586 4.93733 42.9573 5.32C42.5559 5.69333 42.3553 6.244 42.3553 6.972C42.3553 7.71867 42.5606 8.28333 42.9713 8.666C43.3819 9.04867 43.8906 9.24 44.4973 9.24ZM52.9412 10.64C52.2226 10.64 51.5786 10.4813 51.0092 10.164C50.4492 9.84667 50.0106 9.41267 49.6932 8.862C49.3852 8.31133 49.2312 7.69067 49.2312 7C49.2312 6.30933 49.3852 5.68867 49.6932 5.138C50.0106 4.58733 50.4492 4.15333 51.0092 3.836C51.5786 3.51867 52.2226 3.36 52.9412 3.36C53.6599 3.36 54.2992 3.51867 54.8592 3.836C55.4192 4.15333 55.8532 4.58733 56.1612 5.138C56.4786 5.68867 56.6372 6.30933 56.6372 7C56.6372 7.69067 56.4786 8.31133 56.1612 8.862C55.8532 9.41267 55.4192 9.84667 54.8592 10.164C54.2992 10.4813 53.6599 10.64 52.9412 10.64ZM52.9412 9.226C53.5572 9.226 54.0612 9.03 54.4532 8.638C54.8452 8.23667 55.0412 7.69067 55.0412 7C55.0412 6.30933 54.8452 5.768 54.4532 5.376C54.0612 4.97467 53.5572 4.774 52.9412 4.774C52.3252 4.774 51.8166 4.97467 51.4152 5.376C51.0232 5.768 50.8272 6.30933 50.8272 7C50.8272 7.69067 51.0232 8.23667 51.4152 8.638C51.8166 9.03 52.3252 9.226 52.9412 9.226ZM59.7066 4.9H57.3266V3.5H63.6826V4.9H61.3166V10.5H59.7066V4.9ZM65.0581 3.5H66.6541V5.992H68.6421C69.3888 5.992 70.0048 6.17867 70.4901 6.552C70.9754 6.916 71.2181 7.48067 71.2181 8.246C71.2181 9.01133 70.9754 9.58067 70.4901 9.954C70.0048 10.318 69.3888 10.5 68.6421 10.5H65.0581V3.5ZM72.2961 3.5H73.8921V10.5H72.2961V3.5ZM68.4321 9.156C69.2254 9.156 69.6221 8.85267 69.6221 8.246C69.6221 7.938 69.5241 7.70933 69.3281 7.56C69.1414 7.41067 68.8428 7.336 68.4321 7.336H66.6541V9.156H68.4321Z" fill="#4754EB"/>
</svg>
